{
    "packets": [
        {
            "codec_type": "video",
            "stream_index": 0,
            "pts": 0,
            "pts_time": "0.000000",
            "dts": 0,
            "dts_time": "0.000000",
            "duration": 33366,
            "duration_time": "0.033366",
            "size": "17697",
            "pos": "323",
            "flags": "K_"
        },
        {
            "codec_type": "audio",
            "stream_index": 1,
            "pts": 0,
            "pts_time": "0.000000",
            "dts": 0,
            "dts_time": "0.000000",
            "duration": 20000,
            "duration_time": "0.020000",
            "size": "469",
            "pos": "18034",
            "flags": "K_"
        },
        {
            "codec_type": "audio",
            "stream_index": 1,
            "pts": 20000,
            "pts_time": "0.020000",
            "dts": 20000,
            "dts_time": "0.020000",
            "duration": 20000,
            "duration_time": "0.020000",
            "size": "354",
            "pos": "18536",
            "flags": "K_"
        },
        {
            "codec_type": "video",
            "stream_index": 0,
            "pts": 33366,
            "pts_time": "0.033366",
            "dts": 33366,
            "dts_time": "0.033366",
            "duration": 26633,
            "duration_time": "0.026633",
            "size": "4507",
            "pos": "18907",
            "flags": "__"
        },
        {
            "codec_type": "audio",
            "stream_index": 1,
            "pts": 40000,
            "pts_time": "0.040000",
            "dts": 40000,
            "dts_time": "0.040000",
            "duration": 20000,
            "duration_time": "0.020000",
            "size": "349",
            "pos": "23444",
            "flags": "K_"
        },
        {
            "codec_type": "audio",
            "stream_index": 1,
            "pts": 60000,
            "pts_time": "0.060000",
            "dts": 60000,
            "dts_time": "0.060000",
            "duration": 20000,
            "duration_time": "0.020000",
            "size": "332",
            "pos": "23803",
            "flags": "K_"
        },
        {
            "codec_type": "video",
            "stream_index": 0,
            "pts": 66733,
            "pts_time": "0.066733",
            "dts": 66733,
            "dts_time": "0.066733",
            "duration": 13266,
            "duration_time": "0.013266",
            "size": "4400",
            "pos": "24153",
            "flags": "__"
        },
        {
            "codec_type": "audio",
            "stream_index": 1,
            "pts": 80000,
            "pts_time": "0.080000",
            "dts": 80000,
            "dts_time": "0.080000",
            "duration": 20000,
            "duration_time": "0.020000",
            "size": "301",
            "pos": "28584",
            "flags": "K_"
        },
        {
            "codec_type": "audio",
            "stream_index": 1,
            "pts": 100000,
            "pts_time": "0.100000",
            "dts": 100000,
            "dts_time": "0.100000",
            "duration": 20000,
            "duration_time": "0.020000",
            "size": "301",
            "pos": "28895",
            "flags": "K_"
        },
        {
            "codec_type": "video",
            "stream_index": 0,
            "pts": 100100,
            "pts_time": "0.100100",
            "dts": 100100,
            "dts_time": "0.100100",
            "duration": 19900,
            "duration_time": "0.019900",
            "size": "4386",
            "pos": "29215",
            "flags": "__"
        },
        {
            "codec_type": "audio",
            "stream_index": 1,
            "pts": 120000,
            "pts_time": "0.120000",
            "dts": 120000,
            "dts_time": "0.120000",
            "duration": 20000,
            "duration_time": "0.020000",
            "size": "301",
            "pos": "33635",
            "flags": "K_"
        },
        {
            "codec_type": "video",
            "stream_index": 0,
            "pts": 133466,
            "pts_time": "0.133466",
            "dts": 133466,
            "dts_time": "0.133466",
            "duration": 26533,
            "duration_time": "0.026533",
            "size": "7203",
            "pos": "33953",
            "flags": "__"
        },
        {
            "codec_type": "audio",
            "stream_index": 1,
            "pts": 140000,
            "pts_time": "0.140000",
            "dts": 140000,
            "dts_time": "0.140000",
            "duration": 20000,
            "duration_time": "0.020000",
            "size": "301",
            "pos": "41187",
            "flags": "K_"
        },
        {
            "codec_type": "audio",
            "stream_index": 1,
            "pts": 160000,
            "pts_time": "0.160000",
            "dts": 160000,
            "dts_time": "0.160000",
            "duration": 20000,
            "duration_time": "0.020000",
            "size": "301",
            "pos": "41498",
            "flags": "K_"
        },
        {
            "codec_type": "video",
            "stream_index": 0,
            "pts": 166833,
            "pts_time": "0.166833",
            "dts": 166833,
            "dts_time": "0.166833",
            "duration": 13166,
            "duration_time": "0.013166",
            "size": "4438",
            "pos": "41818",
            "flags": "__"
        },
        {
            "codec_type": "audio",
            "stream_index": 1,
            "pts": 180000,
            "pts_time": "0.180000",
            "dts": 180000,
            "dts_time": "0.180000",
            "duration": 20000,
            "duration_time": "0.020000",
            "size": "301",
            "pos": "46287",
            "flags": "K_"
        },
        {
            "codec_type": "audio",
            "stream_index": 1,
            "pts": 200000,
            "pts_time": "0.200000",
            "dts": 200000,
            "dts_time": "0.200000",
            "duration": 20000,
            "duration_time": "0.020000",
            "size": "301",
            "pos": "46598",
            "flags": "K_"
        },
        {
            "codec_type": "video",
            "stream_index": 0,
            "pts": 200200,
            "pts_time": "0.200200",
            "dts": 200200,
            "dts_time": "0.200200",
            "duration": 19800,
            "duration_time": "0.019800",
            "size": "4377",
            "pos": "46918",
            "flags": "__"
        },
        {
            "codec_type": "audio",
            "stream_index": 1,
            "pts": 220000,
            "pts_time": "0.220000",
            "dts": 220000,
            "dts_time": "0.220000",
            "duration": 20000,
            "duration_time": "0.020000",
            "size": "301",
            "pos": "51329",
            "flags": "K_"
        },
        {
            "codec_type": "video",
            "stream_index": 0,
            "pts": 233566,
            "pts_time": "0.233566",
            "dts": 233566,
            "dts_time": "0.233566",
            "duration": 26433,
            "duration_time": "0.026433",
            "size": "4746",
            "pos": "51647",
            "flags": "__"
        },
        {
            "codec_type": "audio",
            "stream_index": 1,
            "pts": 240000,
            "pts_time": "0.240000",
            "dts": 240000,
            "dts_time": "0.240000",
            "duration": 20000,
            "duration_time": "0.020000",
            "size": "301",
            "pos": "56424",
            "flags": "K_"
        },
        {
            "codec_type": "audio",
            "stream_index": 1,
            "pts": 260000,
            "pts_time": "0.260000",
            "dts": 260000,
            "dts_time": "0.260000",
            "duration": 20000,
            "duration_time": "0.020000",
            "size": "301",
            "pos": "56735",
            "flags": "K_"
        },
        {
            "codec_type": "video",
            "stream_index": 0,
            "pts": 266933,
            "pts_time": "0.266933",
            "dts": 266933,
            "dts_time": "0.266933",
            "duration": 13066,
            "duration_time": "0.013066",
            "size": "5185",
            "pos": "57055",
            "flags": "__"
        },
        {
            "codec_type": "audio",
            "stream_index": 1,
            "pts": 280000,
            "pts_time": "0.280000",
            "dts": 280000,
            "dts_time": "0.280000",
            "duration": 20000,
            "duration_time": "0.020000",
            "size": "301",
            "pos": "62271",
            "flags": "K_"
        },
        {
            "codec_type": "audio",
            "stream_index": 1,
            "pts": 300000,
            "pts_time": "0.300000",
            "dts": 300000,
            "dts_time": "0.300000",
            "duration": 20000,
            "duration_time": "0.020000",
            "size": "301",
            "pos": "62582",
            "flags": "K_"
        },
        {
            "codec_type": "video",
            "stream_index": 0,
            "pts": 300300,
            "pts_time": "0.300300",
            "dts": 300300,
            "dts_time": "0.300300",
            "duration": 19700,
            "duration_time": "0.019700",
            "size": "5623",
            "pos": "62902",
            "flags": "__"
        },
        {
            "codec_type": "audio",
            "stream_index": 1,
            "pts": 320000,
            "pts_time": "0.320000",
            "dts": 320000,
            "dts_time": "0.320000",
            "duration": 20000,
            "duration_time": "0.020000",
            "size": "301",
            "pos": "68559",
            "flags": "K_"
        },
        {
            "codec_type": "video",
            "stream_index": 0,
            "pts": 333666,
            "pts_time": "0.333666",
            "dts": 333666,
            "dts_time": "0.333666",
            "duration": 26333,
            "duration_time": "0.026333",
            "size": "5933",
            "pos": "68877",
            "flags": "__"
        },
        {
            "codec_type": "audio",
            "stream_index": 1,
            "pts": 340000,
            "pts_time": "0.340000",
            "dts": 340000,
            "dts_time": "0.340000",
            "duration": 20000,
            "duration_time": "0.020000",
            "size": "301",
            "pos": "74841",
            "flags": "K_"
        },
        {
            "codec_type": "audio",
            "stream_index": 1,
            "pts": 360000,
            "pts_time": "0.360000",
            "dts": 360000,
            "dts_time": "0.360000",
            "duration": 20000,
            "duration_time": "0.020000",
            "size": "301",
            "pos": "75152",
            "flags": "K_"
        },
        {
            "codec_type": "video",
            "stream_index": 0,
            "pts": 367033,
            "pts_time": "0.367033",
            "dts": 367033,
            "dts_time": "0.367033",
            "duration": 12966,
            "duration_time": "0.012966",
            "size": "6231",
            "pos": "75472",
            "flags": "__"
        },
        {
            "codec_type": "audio",
            "stream_index": 1,
            "pts": 380000,
            "pts_time": "0.380000",
            "dts": 380000,
            "dts_time": "0.380000",
            "duration": 20000,
            "duration_time": "0.020000",
            "size": "301",
            "pos": "81734",
            "flags": "K_"
        },
        {
            "codec_type": "audio",
            "stream_index": 1,
            "pts": 400000,
            "pts_time": "0.400000",
            "dts": 400000,
            "dts_time": "0.400000",
            "duration": 20000,
            "duration_time": "0.020000",
            "size": "301",
            "pos": "82045",
            "flags": "K_"
        },
        {
            "codec_type": "video",
            "stream_index": 0,
            "pts": 400400,
            "pts_time": "0.400400",
            "dts": 400400,
            "dts_time": "0.400400",
            "duration": 19600,
            "duration_time": "0.019600",
            "size": "6407",
            "pos": "82365",
            "flags": "__"
        },
        {
            "codec_type": "audio",
            "stream_index": 1,
            "pts": 420000,
            "pts_time": "0.420000",
            "dts": 420000,
            "dts_time": "0.420000",
            "duration": 20000,
            "duration_time": "0.020000",
            "size": "301",
            "pos": "88806",
            "flags": "K_"
        },
        {
            "codec_type": "video",
            "stream_index": 0,
            "pts": 433766,
            "pts_time": "0.433766",
            "dts": 433766,
            "dts_time": "0.433766",
            "duration": 26233,
            "duration_time": "0.026233",
            "size": "6516",
            "pos": "89124",
            "flags": "__"
        },
        {
            "codec_type": "audio",
            "stream_index": 1,
            "pts": 440000,
            "pts_time": "0.440000",
            "dts": 440000,
            "dts_time": "0.440000",
            "duration": 20000,
            "duration_time": "0.020000",
            "size": "301",
            "pos": "95671",
            "flags": "K_"
        },
        {
            "codec_type": "audio",
            "stream_index": 1,
            "pts": 460000,
            "pts_time": "0.460000",
            "dts": 460000,
            "dts_time": "0.460000",
            "duration": 20000,
            "duration_time": "0.020000",
            "size": "301",
            "pos": "95982",
            "flags": "K_"
        },
        {
            "codec_type": "video",
            "stream_index": 0,
            "pts": 467133,
            "pts_time": "0.467133",
            "dts": 467133,
            "dts_time": "0.467133",
            "duration": 12866,
            "duration_time": "0.012866",
            "size": "7074",
            "pos": "96302",
            "flags": "__"
        },
        {
            "codec_type": "audio",
            "stream_index": 1,
            "pts": 480000,
            "pts_time": "0.480000",
            "dts": 480000,
            "dts_time": "0.480000",
            "duration": 20000,
            "duration_time": "0.020000",
            "size": "301",
            "pos": "103407",
            "flags": "K_"
        },
        {
            "codec_type": "audio",
            "stream_index": 1,
            "pts": 500000,
            "pts_time": "0.500000",
            "dts": 500000,
            "dts_time": "0.500000",
            "duration": 20000,
            "duration_time": "0.020000",
            "size": "301",
            "pos": "103718",
            "flags": "K_"
        },
        {
            "codec_type": "video",
            "stream_index": 0,
            "pts": 500500,
            "pts_time": "0.500500",
            "dts": 500500,
            "dts_time": "0.500500",
            "duration": 19500,
            "duration_time": "0.019500",
            "size": "6995",
            "pos": "104038",
            "flags": "__"
        },
        {
            "codec_type": "audio",
            "stream_index": 1,
            "pts": 520000,
            "pts_time": "0.520000",
            "dts": 520000,
            "dts_time": "0.520000",
            "duration": 20000,
            "duration_time": "0.020000",
            "size": "301",
            "pos": "111067",
            "flags": "K_"
        },
        {
            "codec_type": "video",
            "stream_index": 0,
            "pts": 533866,
            "pts_time": "0.533866",
            "dts": 533866,
            "dts_time": "0.533866",
            "duration": 26133,
            "duration_time": "0.026133",
            "size": "7182",
            "pos": "111385",
            "flags": "__"
        },
        {
            "codec_type": "audio",
            "stream_index": 1,
            "pts": 540000,
            "pts_time": "0.540000",
            "dts": 540000,
            "dts_time": "0.540000",
            "duration": 20000,
            "duration_time": "0.020000",
            "size": "301",
            "pos": "118598",
            "flags": "K_"
        },
        {
            "codec_type": "audio",
            "stream_index": 1,
            "pts": 560000,
            "pts_time": "0.560000",
            "dts": 560000,
            "dts_time": "0.560000",
            "duration": 20000,
            "duration_time": "0.020000",
            "size": "301",
            "pos": "118909",
            "flags": "K_"
        },
        {
            "codec_type": "video",
            "stream_index": 0,
            "pts": 567233,
            "pts_time": "0.567233",
            "dts": 567233,
            "dts_time": "0.567233",
            "duration": 12766,
            "duration_time": "0.012766",
            "size": "7467",
            "pos": "119229",
            "flags": "__"
        },
        {
            "codec_type": "audio",
            "stream_index": 1,
            "pts": 580000,
            "pts_time": "0.580000",
            "dts": 580000,
            "dts_time": "0.580000",
            "duration": 20000,
            "duration_time": "0.020000",
            "size": "301",
            "pos": "126727",
            "flags": "K_"
        },
        {
            "codec_type": "audio",
            "stream_index": 1,
            "pts": 600000,
            "pts_time": "0.600000",
            "dts": 600000,
            "dts_time": "0.600000",
            "duration": 20000,
            "duration_time": "0.020000",
            "size": "301",
            "pos": "127038",
            "flags": "K_"
        },
        {
            "codec_type": "video",
            "stream_index": 0,
            "pts": 600600,
            "pts_time": "0.600600",
            "dts": 600600,
            "dts_time": "0.600600",
            "duration": 19400,
            "duration_time": "0.019400",
            "size": "7661",
            "pos": "127358",
            "flags": "__"
        },
        {
            "codec_type": "audio",
            "stream_index": 1,
            "pts": 620000,
            "pts_time": "0.620000",
            "dts": 620000,
            "dts_time": "0.620000",
            "duration": 20000,
            "duration_time": "0.020000",
            "size": "301",
            "pos": "135053",
            "flags": "K_"
        },
        {
            "codec_type": "video",
            "stream_index": 0,
            "pts": 633966,
            "pts_time": "0.633966",
            "dts": 633966,
            "dts_time": "0.633966",
            "duration": 26033,
            "duration_time": "0.026033",
            "size": "7782",
            "pos": "135371",
            "flags": "__"
        },
        {
            "codec_type": "audio",
            "stream_index": 1,
            "pts": 640000,
            "pts_time": "0.640000",
            "dts": 640000,
            "dts_time": "0.640000",
            "duration": 20000,
            "duration_time": "0.020000",
            "size": "301",
            "pos": "143184",
            "flags": "K_"
        },
        {
            "codec_type": "audio",
            "stream_index": 1,
            "pts": 660000,
            "pts_time": "0.660000",
            "dts": 660000,
            "dts_time": "0.660000",
            "duration": 20000,
            "duration_time": "0.020000",
            "size": "301",
            "pos": "143495",
            "flags": "K_"
        },
        {
            "codec_type": "video",
            "stream_index": 0,
            "pts": 667333,
            "pts_time": "0.667333",
            "dts": 667333,
            "dts_time": "0.667333",
            "duration": 12666,
            "duration_time": "0.012666",
            "size": "7896",
            "pos": "143815",
            "flags": "__"
        },
        {
            "codec_type": "audio",
            "stream_index": 1,
            "pts": 680000,
            "pts_time": "0.680000",
            "dts": 680000,
            "dts_time": "0.680000",
            "duration": 20000,
            "duration_time": "0.020000",
            "size": "301",
            "pos": "151742",
            "flags": "K_"
        },
        {
            "codec_type": "audio",
            "stream_index": 1,
            "pts": 700000,
            "pts_time": "0.700000",
            "dts": 700000,
            "dts_time": "0.700000",
            "duration": 20000,
            "duration_time": "0.020000",
            "size": "301",
            "pos": "152053",
            "flags": "K_"
        },
        {
            "codec_type": "video",
            "stream_index": 0,
            "pts": 700700,
            "pts_time": "0.700700",
            "dts": 700700,
            "dts_time": "0.700700",
            "duration": 19300,
            "duration_time": "0.019300",
            "size": "7893",
            "pos": "152373",
            "flags": "__"
        },
        {
            "codec_type": "audio",
            "stream_index": 1,
            "pts": 720000,
            "pts_time": "0.720000",
            "dts": 720000,
            "dts_time": "0.720000",
            "duration": 20000,
            "duration_time": "0.020000",
            "size": "301",
            "pos": "160300",
            "flags": "K_"
        },
        {
            "codec_type": "video",
            "stream_index": 0,
            "pts": 734066,
            "pts_time": "0.734066",
            "dts": 734066,
            "dts_time": "0.734066",
            "duration": 25933,
            "duration_time": "0.025933",
            "size": "7997",
            "pos": "160618",
            "flags": "__"
        },
        {
            "codec_type": "audio",
            "stream_index": 1,
            "pts": 740000,
            "pts_time": "0.740000",
            "dts": 740000,
            "dts_time": "0.740000",
            "duration": 20000,
            "duration_time": "0.020000",
            "size": "301",
            "pos": "168646",
            "flags": "K_"
        },
        {
            "codec_type": "audio",
            "stream_index": 1,
            "pts": 760000,
            "pts_time": "0.760000",
            "dts": 760000,
            "dts_time": "0.760000",
            "duration": 20000,
            "duration_time": "0.020000",
            "size": "301",
            "pos": "168957",
            "flags": "K_"
        },
        {
            "codec_type": "video",
            "stream_index": 0,
            "pts": 767433,
            "pts_time": "0.767433",
            "dts": 767433,
            "dts_time": "0.767433",
            "duration": 12566,
            "duration_time": "0.012566",
            "size": "8061",
            "pos": "169277",
            "flags": "__"
        },
        {
            "codec_type": "audio",
            "stream_index": 1,
            "pts": 780000,
            "pts_time": "0.780000",
            "dts": 780000,
            "dts_time": "0.780000",
            "duration": 20000,
            "duration_time": "0.020000",
            "size": "301",
            "pos": "177369",
            "flags": "K_"
        },
        {
            "codec_type": "audio",
            "stream_index": 1,
            "pts": 800000,
            "pts_time": "0.800000",
            "dts": 800000,
            "dts_time": "0.800000",
            "duration": 20000,
            "duration_time": "0.020000",
            "size": "301",
            "pos": "177680",
            "flags": "K_"
        },
        {
            "codec_type": "video",
            "stream_index": 0,
            "pts": 800800,
            "pts_time": "0.800800",
            "dts": 800800,
            "dts_time": "0.800800",
            "duration": 19200,
            "duration_time": "0.019200",
            "size": "8091",
            "pos": "178000",
            "flags": "__"
        },
        {
            "codec_type": "audio",
            "stream_index": 1,
            "pts": 820000,
            "pts_time": "0.820000",
            "dts": 820000,
            "dts_time": "0.820000",
            "duration": 20000,
            "duration_time": "0.020000",
            "size": "301",
            "pos": "186125",
            "flags": "K_"
        },
        {
            "codec_type": "video",
            "stream_index": 0,
            "pts": 834166,
            "pts_time": "0.834166",
            "dts": 834166,
            "dts_time": "0.834166",
            "duration": 25833,
            "duration_time": "0.025833",
            "size": "8278",
            "pos": "186443",
            "flags": "__"
        },
        {
            "codec_type": "audio",
            "stream_index": 1,
            "pts": 840000,
            "pts_time": "0.840000",
            "dts": 840000,
            "dts_time": "0.840000",
            "duration": 20000,
            "duration_time": "0.020000",
            "size": "301",
            "pos": "194752",
            "flags": "K_"
        },
        {
            "codec_type": "audio",
            "stream_index": 1,
            "pts": 860000,
            "pts_time": "0.860000",
            "dts": 860000,
            "dts_time": "0.860000",
            "duration": 20000,
            "duration_time": "0.020000",
            "size": "301",
            "pos": "195063",
            "flags": "K_"
        },
        {
            "codec_type": "video",
            "stream_index": 0,
            "pts": 867533,
            "pts_time": "0.867533",
            "dts": 867533,
            "dts_time": "0.867533",
            "duration": 12466,
            "duration_time": "0.012466",
            "size": "8285",
            "pos": "195383",
            "flags": "__"
        },
        {
            "codec_type": "audio",
            "stream_index": 1,
            "pts": 880000,
            "pts_time": "0.880000",
            "dts": 880000,
            "dts_time": "0.880000",
            "duration": 20000,
            "duration_time": "0.020000",
            "size": "301",
            "pos": "203699",
            "flags": "K_"
        },
        {
            "codec_type": "audio",
            "stream_index": 1,
            "pts": 900000,
            "pts_time": "0.900000",
            "dts": 900000,
            "dts_time": "0.900000",
            "duration": 20000,
            "duration_time": "0.020000",
            "size": "301",
            "pos": "204010",
            "flags": "K_"
        },
        {
            "codec_type": "video",
            "stream_index": 0,
            "pts": 900900,
            "pts_time": "0.900900",
            "dts": 900900,
            "dts_time": "0.900900",
            "duration": 19100,
            "duration_time": "0.019100",
            "size": "8310",
            "pos": "204330",
            "flags": "__"
        },
        {
            "codec_type": "audio",
            "stream_index": 1,
            "pts": 920000,
            "pts_time": "0.920000",
            "dts": 920000,
            "dts_time": "0.920000",
            "duration": 20000,
            "duration_time": "0.020000",
            "size": "301",
            "pos": "212674",
            "flags": "K_"
        },
        {
            "codec_type": "video",
            "stream_index": 0,
            "pts": 934266,
            "pts_time": "0.934266",
            "dts": 934266,
            "dts_time": "0.934266",
            "duration": 25733,
            "duration_time": "0.025733",
            "size": "8266",
            "pos": "212992",
            "flags": "__"
        },
        {
            "codec_type": "audio",
            "stream_index": 1,
            "pts": 940000,
            "pts_time": "0.940000",
            "dts": 940000,
            "dts_time": "0.940000",
            "duration": 20000,
            "duration_time": "0.020000",
            "size": "301",
            "pos": "221289",
            "flags": "K_"
        },
        {
            "codec_type": "audio",
            "stream_index": 1,
            "pts": 960000,
            "pts_time": "0.960000",
            "dts": 960000,
            "dts_time": "0.960000",
            "duration": 20000,
            "duration_time": "0.020000",
            "size": "301",
            "pos": "221600",
            "flags": "K_"
        },
        {
            "codec_type": "video",
            "stream_index": 0,
            "pts": 967633,
            "pts_time": "0.967633",
            "dts": 967633,
            "dts_time": "0.967633",
            "duration": 12366,
            "duration_time": "0.012366",
            "size": "8305",
            "pos": "221920",
            "flags": "__"
        },
        {
            "codec_type": "audio",
            "stream_index": 1,
            "pts": 980000,
            "pts_time": "0.980000",
            "dts": 980000,
            "dts_time": "0.980000",
            "duration": 20000,
            "duration_time": "0.020000",
            "size": "301",
            "pos": "230256",
            "flags": "K_"
        },
        {
            "codec_type": "audio",
            "stream_index": 1,
            "pts": 1000000,
            "pts_time": "1.000000",
            "dts": 1000000,
            "dts_time": "1.000000",
            "duration": 20000,
            "duration_time": "0.020000",
            "size": "301",
            "pos": "230567",
            "flags": "K_"
        },
        {
            "codec_type": "video",
            "stream_index": 0,
            "pts": 1001000,
            "pts_time": "1.001000",
            "dts": 1001000,
            "dts_time": "1.001000",
            "duration": 19000,
            "duration_time": "0.019000",
            "size": "8414",
            "pos": "230887",
            "flags": "__"
        },
        {
            "codec_type": "audio",
            "stream_index": 1,
            "pts": 1020000,
            "pts_time": "1.020000",
            "dts": 1020000,
            "dts_time": "1.020000",
            "duration": 20000,
            "duration_time": "0.020000",
            "size": "301",
            "pos": "239335",
            "flags": "K_"
        },
        {
            "codec_type": "video",
            "stream_index": 0,
            "pts": 1034366,
            "pts_time": "1.034366",
            "dts": 1034366,
            "dts_time": "1.034366",
            "duration": 25633,
            "duration_time": "0.025633",
            "size": "8331",
            "pos": "239653",
            "flags": "__"
        },
        {
            "codec_type": "audio",
            "stream_index": 1,
            "pts": 1040000,
            "pts_time": "1.040000",
            "dts": 1040000,
            "dts_time": "1.040000",
            "duration": 20000,
            "duration_time": "0.020000",
            "size": "301",
            "pos": "248015",
            "flags": "K_"
        },
        {
            "codec_type": "audio",
            "stream_index": 1,
            "pts": 1060000,
            "pts_time": "1.060000",
            "dts": 1060000,
            "dts_time": "1.060000",
            "duration": 20000,
            "duration_time": "0.020000",
            "size": "301",
            "pos": "248326",
            "flags": "K_"
        },
        {
            "codec_type": "video",
            "stream_index": 0,
            "pts": 1067733,
            "pts_time": "1.067733",
            "dts": 1067733,
            "dts_time": "1.067733",
            "duration": 12266,
            "duration_time": "0.012266",
            "size": "8412",
            "pos": "248646",
            "flags": "__"
        },
        {
            "codec_type": "audio",
            "stream_index": 1,
            "pts": 1080000,
            "pts_time": "1.080000",
            "dts": 1080000,
            "dts_time": "1.080000",
            "duration": 20000,
            "duration_time": "0.020000",
            "size": "301",
            "pos": "257089",
            "flags": "K_"
        },
        {
            "codec_type": "audio",
            "stream_index": 1,
            "pts": 1100000,
            "pts_time": "1.100000",
            "dts": 1100000,
            "dts_time": "1.100000",
            "duration": 20000,
            "duration_time": "0.020000",
            "size": "301",
            "pos": "257400",
            "flags": "K_"
        },
        {
            "codec_type": "video",
            "stream_index": 0,
            "pts": 1101100,
            "pts_time": "1.101100",
            "dts": 1101100,
            "dts_time": "1.101100",
            "duration": 18900,
            "duration_time": "0.018900",
            "size": "8455",
            "pos": "257720",
            "flags": "__"
        },
        {
            "codec_type": "audio",
            "stream_index": 1,
            "pts": 1120000,
            "pts_time": "1.120000",
            "dts": 1120000,
            "dts_time": "1.120000",
            "duration": 20000,
            "duration_time": "0.020000",
            "size": "301",
            "pos": "266209",
            "flags": "K_"
        },
        {
            "codec_type": "video",
            "stream_index": 0,
            "pts": 1134466,
            "pts_time": "1.134466",
            "dts": 1134466,
            "dts_time": "1.134466",
            "duration": 25533,
            "duration_time": "0.025533",
            "size": "8401",
            "pos": "266527",
            "flags": "__"
        },
        {
            "codec_type": "audio",
            "stream_index": 1,
            "pts": 1140000,
            "pts_time": "1.140000",
            "dts": 1140000,
            "dts_time": "1.140000",
            "duration": 20000,
            "duration_time": "0.020000",
            "size": "301",
            "pos": "274959",
            "flags": "K_"
        },
        {
            "codec_type": "audio",
            "stream_index": 1,
            "pts": 1160000,
            "pts_time": "1.160000",
            "dts": 1160000,
            "dts_time": "1.160000",
            "duration": 20000,
            "duration_time": "0.020000",
            "size": "301",
            "pos": "275270",
            "flags": "K_"
        },
        {
            "codec_type": "video",
            "stream_index": 0,
            "pts": 1167833,
            "pts_time": "1.167833",
            "dts": 1167833,
            "dts_time": "1.167833",
            "duration": 12166,
            "duration_time": "0.012166",
            "size": "8457",
            "pos": "275590",
            "flags": "__"
        },
        {
            "codec_type": "audio",
            "stream_index": 1,
            "pts": 1180000,
            "pts_time": "1.180000",
            "dts": 1180000,
            "dts_time": "1.180000",
            "duration": 20000,
            "duration_time": "0.020000",
            "size": "301",
            "pos": "284078",
            "flags": "K_"
        },
        {
            "codec_type": "audio",
            "stream_index": 1,
            "pts": 1200000,
            "pts_time": "1.200000",
            "dts": 1200000,
            "dts_time": "1.200000",
            "duration": 20000,
            "duration_time": "0.020000",
            "size": "301",
            "pos": "284389",
            "flags": "K_"
        },
        {
            "codec_type": "video",
            "stream_index": 0,
            "pts": 1201200,
            "pts_time": "1.201200",
            "dts": 1201200,
            "dts_time": "1.201200",
            "duration": 18800,
            "duration_time": "0.018800",
            "size": "8416",
            "pos": "284709",
            "flags": "__"
        },
        {
            "codec_type": "audio",
            "stream_index": 1,
            "pts": 1220000,
            "pts_time": "1.220000",
            "dts": 1220000,
            "dts_time": "1.220000",
            "duration": 20000,
            "duration_time": "0.020000",
            "size": "301",
            "pos": "293159",
            "flags": "K_"
        },
        {
            "codec_type": "video",
            "stream_index": 0,
            "pts": 1234566,
            "pts_time": "1.234566",
            "dts": 1234566,
            "dts_time": "1.234566",
            "duration": 25433,
            "duration_time": "0.025433",
            "size": "8478",
            "pos": "293477",
            "flags": "__"
        },
        {
            "codec_type": "audio",
            "stream_index": 1,
            "pts": 1240000,
            "pts_time": "1.240000",
            "dts": 1240000,
            "dts_time": "1.240000",
            "duration": 20000,
            "duration_time": "0.020000",
            "size": "301",
            "pos": "301986",
            "flags": "K_"
        },
        {
            "codec_type": "audio",
            "stream_index": 1,
            "pts": 1260000,
            "pts_time": "1.260000",
            "dts": 1260000,
            "dts_time": "1.260000",
            "duration": 20000,
            "duration_time": "0.020000",
            "size": "301",
            "pos": "302297",
            "flags": "K_"
        },
        {
            "codec_type": "video",
            "stream_index": 0,
            "pts": 1267933,
            "pts_time": "1.267933",
            "dts": 1267933,
            "dts_time": "1.267933",
            "duration": 12066,
            "duration_time": "0.012066",
            "size": "8446",
            "pos": "302617",
            "flags": "__"
        },
        {
            "codec_type": "audio",
            "stream_index": 1,
            "pts": 1280000,
            "pts_time": "1.280000",
            "dts": 1280000,
            "dts_time": "1.280000",
            "duration": 20000,
            "duration_time": "0.020000",
            "size": "301",
            "pos": "311094",
            "flags": "K_"
        },
        {
            "codec_type": "audio",
            "stream_index": 1,
            "pts": 1300000,
            "pts_time": "1.300000",
            "dts": 1300000,
            "dts_time": "1.300000",
            "duration": 20000,
            "duration_time": "0.020000",
            "size": "301",
            "pos": "311405",
            "flags": "K_"
        },
        {
            "codec_type": "video",
            "stream_index": 0,
            "pts": 1301300,
            "pts_time": "1.301300",
            "dts": 1301300,
            "dts_time": "1.301300",
            "duration": 18700,
            "duration_time": "0.018700",
            "size": "8459",
            "pos": "311725",
            "flags": "__"
        },
        {
            "codec_type": "audio",
            "stream_index": 1,
            "pts": 1320000,
            "pts_time": "1.320000",
            "dts": 1320000,
            "dts_time": "1.320000",
            "duration": 20000,
            "duration_time": "0.020000",
            "size": "301",
            "pos": "320218",
            "flags": "K_"
        },
        {
            "codec_type": "video",
            "stream_index": 0,
            "pts": 1334666,
            "pts_time": "1.334666",
            "dts": 1334666,
            "dts_time": "1.334666",
            "duration": 25333,
            "duration_time": "0.025333",
            "size": "8460",
            "pos": "320536",
            "flags": "__"
        },
        {
            "codec_type": "audio",
            "stream_index": 1,
            "pts": 1340000,
            "pts_time": "1.340000",
            "dts": 1340000,
            "dts_time": "1.340000",
            "duration": 20000,
            "duration_time": "0.020000",
            "size": "301",
            "pos": "329027",
            "flags": "K_"
        },
        {
            "codec_type": "audio",
            "stream_index": 1,
            "pts": 1360000,
            "pts_time": "1.360000",
            "dts": 1360000,
            "dts_time": "1.360000",
            "duration": 20000,
            "duration_time": "0.020000",
            "size": "301",
            "pos": "329338",
            "flags": "K_"
        },
        {
            "codec_type": "video",
            "stream_index": 0,
            "pts": 1368033,
            "pts_time": "1.368033",
            "dts": 1368033,
            "dts_time": "1.368033",
            "duration": 11966,
            "duration_time": "0.011966",
            "size": "8461",
            "pos": "329658",
            "flags": "__"
        },
        {
            "codec_type": "audio",
            "stream_index": 1,
            "pts": 1380000,
            "pts_time": "1.380000",
            "dts": 1380000,
            "dts_time": "1.380000",
            "duration": 20000,
            "duration_time": "0.020000",
            "size": "301",
            "pos": "338150",
            "flags": "K_"
        },
        {
            "codec_type": "audio",
            "stream_index": 1,
            "pts": 1400000,
            "pts_time": "1.400000",
            "dts": 1400000,
            "dts_time": "1.400000",
            "duration": 20000,
            "duration_time": "0.020000",
            "size": "301",
            "pos": "338461",
            "flags": "K_"
        },
        {
            "codec_type": "video",
            "stream_index": 0,
            "pts": 1401400,
            "pts_time": "1.401400",
            "dts": 1401400,
            "dts_time": "1.401400",
            "duration": 18600,
            "duration_time": "0.018600",
            "size": "8456",
            "pos": "338781",
            "flags": "__"
        },
        {
            "codec_type": "audio",
            "stream_index": 1,
            "pts": 1420000,
            "pts_time": "1.420000",
            "dts": 1420000,
            "dts_time": "1.420000",
            "duration": 20000,
            "duration_time": "0.020000",
            "size": "301",
            "pos": "347271",
            "flags": "K_"
        },
        {
            "codec_type": "video",
            "stream_index": 0,
            "pts": 1434766,
            "pts_time": "1.434766",
            "dts": 1434766,
            "dts_time": "1.434766",
            "duration": 25233,
            "duration_time": "0.025233",
            "size": "8421",
            "pos": "347589",
            "flags": "__"
        },
        {
            "codec_type": "audio",
            "stream_index": 1,
            "pts": 1440000,
            "pts_time": "1.440000",
            "dts": 1440000,
            "dts_time": "1.440000",
            "duration": 20000,
            "duration_time": "0.020000",
            "size": "301",
            "pos": "356041",
            "flags": "K_"
        },
        {
            "codec_type": "audio",
            "stream_index": 1,
            "pts": 1460000,
            "pts_time": "1.460000",
            "dts": 1460000,
            "dts_time": "1.460000",
            "duration": 20000,
            "duration_time": "0.020000",
            "size": "301",
            "pos": "356352",
            "flags": "K_"
        },
        {
            "codec_type": "video",
            "stream_index": 0,
            "pts": 1468133,
            "pts_time": "1.468133",
            "dts": 1468133,
            "dts_time": "1.468133",
            "duration": 11866,
            "duration_time": "0.011866",
            "size": "8429",
            "pos": "356672",
            "flags": "__"
        },
        {
            "codec_type": "audio",
            "stream_index": 1,
            "pts": 1480000,
            "pts_time": "1.480000",
            "dts": 1480000,
            "dts_time": "1.480000",
            "duration": 20000,
            "duration_time": "0.020000",
            "size": "301",
            "pos": "365132",
            "flags": "K_"
        },
        {
            "codec_type": "audio",
            "stream_index": 1,
            "pts": 1500000,
            "pts_time": "1.500000",
            "dts": 1500000,
            "dts_time": "1.500000",
            "duration": 20000,
            "duration_time": "0.020000",
            "size": "301",
            "pos": "365443",
            "flags": "K_"
        },
        {
            "codec_type": "video",
            "stream_index": 0,
            "pts": 1501500,
            "pts_time": "1.501500",
            "dts": 1501500,
            "dts_time": "1.501500",
            "duration": 18500,
            "duration_time": "0.018500",
            "size": "8579",
            "pos": "365763",
            "flags": "__"
        },
        {
            "codec_type": "audio",
            "stream_index": 1,
            "pts": 1520000,
            "pts_time": "1.520000",
            "dts": 1520000,
            "dts_time": "1.520000",
            "duration": 20000,
            "duration_time": "0.020000",
            "size": "301",
            "pos": "374376",
            "flags": "K_"
        },
        {
            "codec_type": "video",
            "stream_index": 0,
            "pts": 1534866,
            "pts_time": "1.534866",
            "dts": 1534866,
            "dts_time": "1.534866",
            "duration": 25133,
            "duration_time": "0.025133",
            "size": "8430",
            "pos": "374694",
            "flags": "__"
        },
        {
            "codec_type": "audio",
            "stream_index": 1,
            "pts": 1540000,
            "pts_time": "1.540000",
            "dts": 1540000,
            "dts_time": "1.540000",
            "duration": 20000,
            "duration_time": "0.020000",
            "size": "301",
            "pos": "383155",
            "flags": "K_"
        },
        {
            "codec_type": "audio",
            "stream_index": 1,
            "pts": 1560000,
            "pts_time": "1.560000",
            "dts": 1560000,
            "dts_time": "1.560000",
            "duration": 20000,
            "duration_time": "0.020000",
            "size": "301",
            "pos": "383466",
            "flags": "K_"
        },
        {
            "codec_type": "video",
            "stream_index": 0,
            "pts": 1568233,
            "pts_time": "1.568233",
            "dts": 1568233,
            "dts_time": "1.568233",
            "duration": 11766,
            "duration_time": "0.011766",
            "size": "8454",
            "pos": "383786",
            "flags": "__"
        },
        {
            "codec_type": "audio",
            "stream_index": 1,
            "pts": 1580000,
            "pts_time": "1.580000",
            "dts": 1580000,
            "dts_time": "1.580000",
            "duration": 20000,
            "duration_time": "0.020000",
            "size": "301",
            "pos": "392271",
            "flags": "K_"
        },
        {
            "codec_type": "audio",
            "stream_index": 1,
            "pts": 1600000,
            "pts_time": "1.600000",
            "dts": 1600000,
            "dts_time": "1.600000",
            "duration": 20000,
            "duration_time": "0.020000",
            "size": "301",
            "pos": "392582",
            "flags": "K_"
        },
        {
            "codec_type": "video",
            "stream_index": 0,
            "pts": 1601600,
            "pts_time": "1.601600",
            "dts": 1601600,
            "dts_time": "1.601600",
            "duration": 18400,
            "duration_time": "0.018400",
            "size": "8425",
            "pos": "392902",
            "flags": "__"
        },
        {
            "codec_type": "audio",
            "stream_index": 1,
            "pts": 1620000,
            "pts_time": "1.620000",
            "dts": 1620000,
            "dts_time": "1.620000",
            "duration": 20000,
            "duration_time": "0.020000",
            "size": "301",
            "pos": "401361",
            "flags": "K_"
        },
        {
            "codec_type": "video",
            "stream_index": 0,
            "pts": 1634966,
            "pts_time": "1.634966",
            "dts": 1634966,
            "dts_time": "1.634966",
            "duration": 25033,
            "duration_time": "0.025033",
            "size": "8523",
            "pos": "401679",
            "flags": "__"
        },
        {
            "codec_type": "audio",
            "stream_index": 1,
            "pts": 1640000,
            "pts_time": "1.640000",
            "dts": 1640000,
            "dts_time": "1.640000",
            "duration": 20000,
            "duration_time": "0.020000",
            "size": "301",
            "pos": "410233",
            "flags": "K_"
        },
        {
            "codec_type": "audio",
            "stream_index": 1,
            "pts": 1660000,
            "pts_time": "1.660000",
            "dts": 1660000,
            "dts_time": "1.660000",
            "duration": 20000,
            "duration_time": "0.020000",
            "size": "301",
            "pos": "410544",
            "flags": "K_"
        },
        {
            "codec_type": "video",
            "stream_index": 0,
            "pts": 1668333,
            "pts_time": "1.668333",
            "dts": 1668333,
            "dts_time": "1.668333",
            "duration": 11666,
            "duration_time": "0.011666",
            "size": "8399",
            "pos": "410864",
            "flags": "__"
        },
        {
            "codec_type": "audio",
            "stream_index": 1,
            "pts": 1680000,
            "pts_time": "1.680000",
            "dts": 1680000,
            "dts_time": "1.680000",
            "duration": 20000,
            "duration_time": "0.020000",
            "size": "301",
            "pos": "419294",
            "flags": "K_"
        },
        {
            "codec_type": "audio",
            "stream_index": 1,
            "pts": 1700000,
            "pts_time": "1.700000",
            "dts": 1700000,
            "dts_time": "1.700000",
            "duration": 20000,
            "duration_time": "0.020000",
            "size": "301",
            "pos": "419605",
            "flags": "K_"
        },
        {
            "codec_type": "video",
            "stream_index": 0,
            "pts": 1701700,
            "pts_time": "1.701700",
            "dts": 1701700,
            "dts_time": "1.701700",
            "duration": 18300,
            "duration_time": "0.018300",
            "size": "8534",
            "pos": "419925",
            "flags": "__"
        },
        {
            "codec_type": "audio",
            "stream_index": 1,
            "pts": 1720000,
            "pts_time": "1.720000",
            "dts": 1720000,
            "dts_time": "1.720000",
            "duration": 20000,
            "duration_time": "0.020000",
            "size": "301",
            "pos": "428493",
            "flags": "K_"
        },
        {
            "codec_type": "video",
            "stream_index": 0,
            "pts": 1735066,
            "pts_time": "1.735066",
            "dts": 1735066,
            "dts_time": "1.735066",
            "duration": 24933,
            "duration_time": "0.024933",
            "size": "8388",
            "pos": "428811",
            "flags": "__"
        },
        {
            "codec_type": "audio",
            "stream_index": 1,
            "pts": 1740000,
            "pts_time": "1.740000",
            "dts": 1740000,
            "dts_time": "1.740000",
            "duration": 20000,
            "duration_time": "0.020000",
            "size": "301",
            "pos": "437230",
            "flags": "K_"
        },
        {
            "codec_type": "audio",
            "stream_index": 1,
            "pts": 1760000,
            "pts_time": "1.760000",
            "dts": 1760000,
            "dts_time": "1.760000",
            "duration": 20000,
            "duration_time": "0.020000",
            "size": "301",
            "pos": "437541",
            "flags": "K_"
        },
        {
            "codec_type": "video",
            "stream_index": 0,
            "pts": 1768433,
            "pts_time": "1.768433",
            "dts": 1768433,
            "dts_time": "1.768433",
            "duration": 11566,
            "duration_time": "0.011566",
            "size": "8395",
            "pos": "437861",
            "flags": "__"
        },
        {
            "codec_type": "audio",
            "stream_index": 1,
            "pts": 1780000,
            "pts_time": "1.780000",
            "dts": 1780000,
            "dts_time": "1.780000",
            "duration": 20000,
            "duration_time": "0.020000",
            "size": "301",
            "pos": "446287",
            "flags": "K_"
        },
        {
            "codec_type": "audio",
            "stream_index": 1,
            "pts": 1800000,
            "pts_time": "1.800000",
            "dts": 1800000,
            "dts_time": "1.800000",
            "duration": 20000,
            "duration_time": "0.020000",
            "size": "301",
            "pos": "446598",
            "flags": "K_"
        },
        {
            "codec_type": "video",
            "stream_index": 0,
            "pts": 1801800,
            "pts_time": "1.801800",
            "dts": 1801800,
            "dts_time": "1.801800",
            "duration": 18200,
            "duration_time": "0.018200",
            "size": "8361",
            "pos": "446918",
            "flags": "__"
        },
        {
            "codec_type": "audio",
            "stream_index": 1,
            "pts": 1820000,
            "pts_time": "1.820000",
            "dts": 1820000,
            "dts_time": "1.820000",
            "duration": 20000,
            "duration_time": "0.020000",
            "size": "301",
            "pos": "455313",
            "flags": "K_"
        },
        {
            "codec_type": "video",
            "stream_index": 0,
            "pts": 1835166,
            "pts_time": "1.835166",
            "dts": 1835166,
            "dts_time": "1.835166",
            "duration": 24833,
            "duration_time": "0.024833",
            "size": "8453",
            "pos": "455631",
            "flags": "__"
        },
        {
            "codec_type": "audio",
            "stream_index": 1,
            "pts": 1840000,
            "pts_time": "1.840000",
            "dts": 1840000,
            "dts_time": "1.840000",
            "duration": 20000,
            "duration_time": "0.020000",
            "size": "301",
            "pos": "464115",
            "flags": "K_"
        },
        {
            "codec_type": "audio",
            "stream_index": 1,
            "pts": 1860000,
            "pts_time": "1.860000",
            "dts": 1860000,
            "dts_time": "1.860000",
            "duration": 20000,
            "duration_time": "0.020000",
            "size": "301",
            "pos": "464426",
            "flags": "K_"
        },
        {
            "codec_type": "video",
            "stream_index": 0,
            "pts": 1868533,
            "pts_time": "1.868533",
            "dts": 1868533,
            "dts_time": "1.868533",
            "duration": 11466,
            "duration_time": "0.011466",
            "size": "8545",
            "pos": "464746",
            "flags": "__"
        },
        {
            "codec_type": "audio",
            "stream_index": 1,
            "pts": 1880000,
            "pts_time": "1.880000",
            "dts": 1880000,
            "dts_time": "1.880000",
            "duration": 20000,
            "duration_time": "0.020000",
            "size": "301",
            "pos": "473322",
            "flags": "K_"
        },
        {
            "codec_type": "audio",
            "stream_index": 1,
            "pts": 1900000,
            "pts_time": "1.900000",
            "dts": 1900000,
            "dts_time": "1.900000",
            "duration": 20000,
            "duration_time": "0.020000",
            "size": "301",
            "pos": "473633",
            "flags": "K_"
        },
        {
            "codec_type": "video",
            "stream_index": 0,
            "pts": 1901900,
            "pts_time": "1.901900",
            "dts": 1901900,
            "dts_time": "1.901900",
            "duration": 18100,
            "duration_time": "0.018100",
            "size": "8476",
            "pos": "473953",
            "flags": "__"
        },
        {
            "codec_type": "audio",
            "stream_index": 1,
            "pts": 1920000,
            "pts_time": "1.920000",
            "dts": 1920000,
            "dts_time": "1.920000",
            "duration": 20000,
            "duration_time": "0.020000",
            "size": "301",
            "pos": "482463",
            "flags": "K_"
        },
        {
            "codec_type": "video",
            "stream_index": 0,
            "pts": 1935266,
            "pts_time": "1.935266",
            "dts": 1935266,
            "dts_time": "1.935266",
            "duration": 24733,
            "duration_time": "0.024733",
            "size": "8475",
            "pos": "482781",
            "flags": "__"
        },
        {
            "codec_type": "audio",
            "stream_index": 1,
            "pts": 1940000,
            "pts_time": "1.940000",
            "dts": 1940000,
            "dts_time": "1.940000",
            "duration": 20000,
            "duration_time": "0.020000",
            "size": "301",
            "pos": "491287",
            "flags": "K_"
        },
        {
            "codec_type": "audio",
            "stream_index": 1,
            "pts": 1960000,
            "pts_time": "1.960000",
            "dts": 1960000,
            "dts_time": "1.960000",
            "duration": 20000,
            "duration_time": "0.020000",
            "size": "301",
            "pos": "491598",
            "flags": "K_"
        },
        {
            "codec_type": "video",
            "stream_index": 0,
            "pts": 1968633,
            "pts_time": "1.968633",
            "dts": 1968633,
            "dts_time": "1.968633",
            "duration": 11366,
            "duration_time": "0.011366",
            "size": "8422",
            "pos": "491918",
            "flags": "__"
        },
        {
            "codec_type": "audio",
            "stream_index": 1,
            "pts": 1980000,
            "pts_time": "1.980000",
            "dts": 1980000,
            "dts_time": "1.980000",
            "duration": 20000,
            "duration_time": "0.020000",
            "size": "301",
            "pos": "500371",
            "flags": "K_"
        },
        {
            "codec_type": "audio",
            "stream_index": 1,
            "pts": 2000000,
            "pts_time": "2.000000",
            "dts": 2000000,
            "dts_time": "2.000000",
            "duration": 20000,
            "duration_time": "0.020000",
            "size": "301",
            "pos": "500682",
            "flags": "K_"
        },
        {
            "codec_type": "video",
            "stream_index": 0,
            "pts": 2002000,
            "pts_time": "2.002000",
            "dts": 2002000,
            "dts_time": "2.002000",
            "duration": 18000,
            "duration_time": "0.018000",
            "size": "8509",
            "pos": "501002",
            "flags": "__"
        },
        {
            "codec_type": "audio",
            "stream_index": 1,
            "pts": 2020000,
            "pts_time": "2.020000",
            "dts": 2020000,
            "dts_time": "2.020000",
            "duration": 20000,
            "duration_time": "0.020000",
            "size": "301",
            "pos": "509545",
            "flags": "K_"
        },
        {
            "codec_type": "video",
            "stream_index": 0,
            "pts": 2035366,
            "pts_time": "2.035366",
            "dts": 2035366,
            "dts_time": "2.035366",
            "duration": 24633,
            "duration_time": "0.024633",
            "size": "8466",
            "pos": "509863",
            "flags": "__"
        },
        {
            "codec_type": "audio",
            "stream_index": 1,
            "pts": 2040000,
            "pts_time": "2.040000",
            "dts": 2040000,
            "dts_time": "2.040000",
            "duration": 20000,
            "duration_time": "0.020000",
            "size": "301",
            "pos": "518360",
            "flags": "K_"
        },
        {
            "codec_type": "audio",
            "stream_index": 1,
            "pts": 2060000,
            "pts_time": "2.060000",
            "dts": 2060000,
            "dts_time": "2.060000",
            "duration": 20000,
            "duration_time": "0.020000",
            "size": "301",
            "pos": "518671",
            "flags": "K_"
        },
        {
            "codec_type": "video",
            "stream_index": 0,
            "pts": 2068733,
            "pts_time": "2.068733",
            "dts": 2068733,
            "dts_time": "2.068733",
            "duration": 11266,
            "duration_time": "0.011266",
            "size": "8512",
            "pos": "518991",
            "flags": "__"
        },
        {
            "codec_type": "audio",
            "stream_index": 1,
            "pts": 2080000,
            "pts_time": "2.080000",
            "dts": 2080000,
            "dts_time": "2.080000",
            "duration": 20000,
            "duration_time": "0.020000",
            "size": "301",
            "pos": "527534",
            "flags": "K_"
        },
        {
            "codec_type": "audio",
            "stream_index": 1,
            "pts": 2100000,
            "pts_time": "2.100000",
            "dts": 2100000,
            "dts_time": "2.100000",
            "duration": 20000,
            "duration_time": "0.020000",
            "size": "301",
            "pos": "527845",
            "flags": "K_"
        },
        {
            "codec_type": "video",
            "stream_index": 0,
            "pts": 2102100,
            "pts_time": "2.102100",
            "dts": 2102100,
            "dts_time": "2.102100",
            "duration": 17900,
            "duration_time": "0.017900",
            "size": "8478",
            "pos": "528165",
            "flags": "__"
        },
        {
            "codec_type": "audio",
            "stream_index": 1,
            "pts": 2120000,
            "pts_time": "2.120000",
            "dts": 2120000,
            "dts_time": "2.120000",
            "duration": 20000,
            "duration_time": "0.020000",
            "size": "301",
            "pos": "536677",
            "flags": "K_"
        },
        {
            "codec_type": "video",
            "stream_index": 0,
            "pts": 2135466,
            "pts_time": "2.135466",
            "dts": 2135466,
            "dts_time": "2.135466",
            "duration": 24533,
            "duration_time": "0.024533",
            "size": "8462",
            "pos": "536995",
            "flags": "__"
        },
        {
            "codec_type": "audio",
            "stream_index": 1,
            "pts": 2140000,
            "pts_time": "2.140000",
            "dts": 2140000,
            "dts_time": "2.140000",
            "duration": 20000,
            "duration_time": "0.020000",
            "size": "301",
            "pos": "545488",
            "flags": "K_"
        },
        {
            "codec_type": "audio",
            "stream_index": 1,
            "pts": 2160000,
            "pts_time": "2.160000",
            "dts": 2160000,
            "dts_time": "2.160000",
            "duration": 20000,
            "duration_time": "0.020000",
            "size": "301",
            "pos": "545799",
            "flags": "K_"
        },
        {
            "codec_type": "video",
            "stream_index": 0,
            "pts": 2168833,
            "pts_time": "2.168833",
            "dts": 2168833,
            "dts_time": "2.168833",
            "duration": 11166,
            "duration_time": "0.011166",
            "size": "8402",
            "pos": "546119",
            "flags": "__"
        },
        {
            "codec_type": "audio",
            "stream_index": 1,
            "pts": 2180000,
            "pts_time": "2.180000",
            "dts": 2180000,
            "dts_time": "2.180000",
            "duration": 20000,
            "duration_time": "0.020000",
            "size": "301",
            "pos": "554552",
            "flags": "K_"
        },
        {
            "codec_type": "audio",
            "stream_index": 1,
            "pts": 2200000,
            "pts_time": "2.200000",
            "dts": 2200000,
            "dts_time": "2.200000",
            "duration": 20000,
            "duration_time": "0.020000",
            "size": "301",
            "pos": "554863",
            "flags": "K_"
        },
        {
            "codec_type": "video",
            "stream_index": 0,
            "pts": 2202200,
            "pts_time": "2.202200",
            "dts": 2202200,
            "dts_time": "2.202200",
            "duration": 17800,
            "duration_time": "0.017800",
            "size": "8377",
            "pos": "555183",
            "flags": "__"
        },
        {
            "codec_type": "audio",
            "stream_index": 1,
            "pts": 2220000,
            "pts_time": "2.220000",
            "dts": 2220000,
            "dts_time": "2.220000",
            "duration": 20000,
            "duration_time": "0.020000",
            "size": "301",
            "pos": "563594",
            "flags": "K_"
        },
        {
            "codec_type": "video",
            "stream_index": 0,
            "pts": 2235566,
            "pts_time": "2.235566",
            "dts": 2235566,
            "dts_time": "2.235566",
            "duration": 24433,
            "duration_time": "0.024433",
            "size": "8431",
            "pos": "563912",
            "flags": "__"
        },
        {
            "codec_type": "audio",
            "stream_index": 1,
            "pts": 2240000,
            "pts_time": "2.240000",
            "dts": 2240000,
            "dts_time": "2.240000",
            "duration": 20000,
            "duration_time": "0.020000",
            "size": "301",
            "pos": "572374",
            "flags": "K_"
        },
        {
            "codec_type": "audio",
            "stream_index": 1,
            "pts": 2260000,
            "pts_time": "2.260000",
            "dts": 2260000,
            "dts_time": "2.260000",
            "duration": 20000,
            "duration_time": "0.020000",
            "size": "301",
            "pos": "572685",
            "flags": "K_"
        },
        {
            "codec_type": "video",
            "stream_index": 0,
            "pts": 2268933,
            "pts_time": "2.268933",
            "dts": 2268933,
            "dts_time": "2.268933",
            "duration": 11066,
            "duration_time": "0.011066",
            "size": "8468",
            "pos": "573005",
            "flags": "__"
        },
        {
            "codec_type": "audio",
            "stream_index": 1,
            "pts": 2280000,
            "pts_time": "2.280000",
            "dts": 2280000,
            "dts_time": "2.280000",
            "duration": 20000,
            "duration_time": "0.020000",
            "size": "301",
            "pos": "581504",
            "flags": "K_"
        },
        {
            "codec_type": "audio",
            "stream_index": 1,
            "pts": 2300000,
            "pts_time": "2.300000",
            "dts": 2300000,
            "dts_time": "2.300000",
            "duration": 20000,
            "duration_time": "0.020000",
            "size": "301",
            "pos": "581815",
            "flags": "K_"
        },
        {
            "codec_type": "video",
            "stream_index": 0,
            "pts": 2302300,
            "pts_time": "2.302300",
            "dts": 2302300,
            "dts_time": "2.302300",
            "duration": 17700,
            "duration_time": "0.017700",
            "size": "8397",
            "pos": "582135",
            "flags": "__"
        },
        {
            "codec_type": "audio",
            "stream_index": 1,
            "pts": 2320000,
            "pts_time": "2.320000",
            "dts": 2320000,
            "dts_time": "2.320000",
            "duration": 20000,
            "duration_time": "0.020000",
            "size": "301",
            "pos": "590566",
            "flags": "K_"
        },
        {
            "codec_type": "video",
            "stream_index": 0,
            "pts": 2335666,
            "pts_time": "2.335666",
            "dts": 2335666,
            "dts_time": "2.335666",
            "duration": 24333,
            "duration_time": "0.024333",
            "size": "8462",
            "pos": "590884",
            "flags": "__"
        },
        {
            "codec_type": "audio",
            "stream_index": 1,
            "pts": 2340000,
            "pts_time": "2.340000",
            "dts": 2340000,
            "dts_time": "2.340000",
            "duration": 20000,
            "duration_time": "0.020000",
            "size": "301",
            "pos": "599377",
            "flags": "K_"
        },
        {
            "codec_type": "audio",
            "stream_index": 1,
            "pts": 2360000,
            "pts_time": "2.360000",
            "dts": 2360000,
            "dts_time": "2.360000",
            "duration": 20000,
            "duration_time": "0.020000",
            "size": "301",
            "pos": "599688",
            "flags": "K_"
        },
        {
            "codec_type": "video",
            "stream_index": 0,
            "pts": 2369033,
            "pts_time": "2.369033",
            "dts": 2369033,
            "dts_time": "2.369033",
            "duration": 10966,
            "duration_time": "0.010966",
            "size": "8455",
            "pos": "600008",
            "flags": "__"
        },
        {
            "codec_type": "audio",
            "stream_index": 1,
            "pts": 2380000,
            "pts_time": "2.380000",
            "dts": 2380000,
            "dts_time": "2.380000",
            "duration": 20000,
            "duration_time": "0.020000",
            "size": "301",
            "pos": "608494",
            "flags": "K_"
        },
        {
            "codec_type": "audio",
            "stream_index": 1,
            "pts": 2400000,
            "pts_time": "2.400000",
            "dts": 2400000,
            "dts_time": "2.400000",
            "duration": 20000,
            "duration_time": "0.020000",
            "size": "301",
            "pos": "608805",
            "flags": "K_"
        },
        {
            "codec_type": "video",
            "stream_index": 0,
            "pts": 2402400,
            "pts_time": "2.402400",
            "dts": 2402400,
            "dts_time": "2.402400",
            "duration": 17600,
            "duration_time": "0.017600",
            "size": "8374",
            "pos": "609125",
            "flags": "__"
        },
        {
            "codec_type": "audio",
            "stream_index": 1,
            "pts": 2420000,
            "pts_time": "2.420000",
            "dts": 2420000,
            "dts_time": "2.420000",
            "duration": 20000,
            "duration_time": "0.020000",
            "size": "301",
            "pos": "617533",
            "flags": "K_"
        },
        {
            "codec_type": "video",
            "stream_index": 0,
            "pts": 2435766,
            "pts_time": "2.435766",
            "dts": 2435766,
            "dts_time": "2.435766",
            "duration": 24233,
            "duration_time": "0.024233",
            "size": "8391",
            "pos": "617851",
            "flags": "__"
        },
        {
            "codec_type": "audio",
            "stream_index": 1,
            "pts": 2440000,
            "pts_time": "2.440000",
            "dts": 2440000,
            "dts_time": "2.440000",
            "duration": 20000,
            "duration_time": "0.020000",
            "size": "301",
            "pos": "626273",
            "flags": "K_"
        },
        {
            "codec_type": "audio",
            "stream_index": 1,
            "pts": 2460000,
            "pts_time": "2.460000",
            "dts": 2460000,
            "dts_time": "2.460000",
            "duration": 20000,
            "duration_time": "0.020000",
            "size": "301",
            "pos": "626584",
            "flags": "K_"
        },
        {
            "codec_type": "video",
            "stream_index": 0,
            "pts": 2469133,
            "pts_time": "2.469133",
            "dts": 2469133,
            "dts_time": "2.469133",
            "duration": 10866,
            "duration_time": "0.010866",
            "size": "8456",
            "pos": "626904",
            "flags": "__"
        },
        {
            "codec_type": "audio",
            "stream_index": 1,
            "pts": 2480000,
            "pts_time": "2.480000",
            "dts": 2480000,
            "dts_time": "2.480000",
            "duration": 20000,
            "duration_time": "0.020000",
            "size": "301",
            "pos": "635391",
            "flags": "K_"
        },
        {
            "codec_type": "audio",
            "stream_index": 1,
            "pts": 2500000,
            "pts_time": "2.500000",
            "dts": 2500000,
            "dts_time": "2.500000",
            "duration": 20000,
            "duration_time": "0.020000",
            "size": "301",
            "pos": "635702",
            "flags": "K_"
        },
        {
            "codec_type": "video",
            "stream_index": 0,
            "pts": 2502500,
            "pts_time": "2.502500",
            "dts": 2502500,
            "dts_time": "2.502500",
            "duration": 17500,
            "duration_time": "0.017500",
            "size": "8510",
            "pos": "636022",
            "flags": "__"
        },
        {
            "codec_type": "audio",
            "stream_index": 1,
            "pts": 2520000,
            "pts_time": "2.520000",
            "dts": 2520000,
            "dts_time": "2.520000",
            "duration": 20000,
            "duration_time": "0.020000",
            "size": "301",
            "pos": "644566",
            "flags": "K_"
        },
        {
            "codec_type": "video",
            "stream_index": 0,
            "pts": 2535866,
            "pts_time": "2.535866",
            "dts": 2535866,
            "dts_time": "2.535866",
            "duration": 24133,
            "duration_time": "0.024133",
            "size": "8400",
            "pos": "644884",
            "flags": "__"
        },
        {
            "codec_type": "audio",
            "stream_index": 1,
            "pts": 2540000,
            "pts_time": "2.540000",
            "dts": 2540000,
            "dts_time": "2.540000",
            "duration": 20000,
            "duration_time": "0.020000",
            "size": "301",
            "pos": "653315",
            "flags": "K_"
        },
        {
            "codec_type": "audio",
            "stream_index": 1,
            "pts": 2560000,
            "pts_time": "2.560000",
            "dts": 2560000,
            "dts_time": "2.560000",
            "duration": 20000,
            "duration_time": "0.020000",
            "size": "301",
            "pos": "653626",
            "flags": "K_"
        },
        {
            "codec_type": "video",
            "stream_index": 0,
            "pts": 2569233,
            "pts_time": "2.569233",
            "dts": 2569233,
            "dts_time": "2.569233",
            "duration": 10766,
            "duration_time": "0.010766",
            "size": "8387",
            "pos": "653946",
            "flags": "__"
        },
        {
            "codec_type": "audio",
            "stream_index": 1,
            "pts": 2580000,
            "pts_time": "2.580000",
            "dts": 2580000,
            "dts_time": "2.580000",
            "duration": 20000,
            "duration_time": "0.020000",
            "size": "301",
            "pos": "662364",
            "flags": "K_"
        },
        {
            "codec_type": "audio",
            "stream_index": 1,
            "pts": 2600000,
            "pts_time": "2.600000",
            "dts": 2600000,
            "dts_time": "2.600000",
            "duration": 20000,
            "duration_time": "0.020000",
            "size": "301",
            "pos": "662675",
            "flags": "K_"
        },
        {
            "codec_type": "video",
            "stream_index": 0,
            "pts": 2602600,
            "pts_time": "2.602600",
            "dts": 2602600,
            "dts_time": "2.602600",
            "duration": 17400,
            "duration_time": "0.017400",
            "size": "8435",
            "pos": "662995",
            "flags": "__"
        },
        {
            "codec_type": "audio",
            "stream_index": 1,
            "pts": 2620000,
            "pts_time": "2.620000",
            "dts": 2620000,
            "dts_time": "2.620000",
            "duration": 20000,
            "duration_time": "0.020000",
            "size": "301",
            "pos": "671464",
            "flags": "K_"
        },
        {
            "codec_type": "video",
            "stream_index": 0,
            "pts": 2635966,
            "pts_time": "2.635966",
            "dts": 2635966,
            "dts_time": "2.635966",
            "duration": 24033,
            "duration_time": "0.024033",
            "size": "8397",
            "pos": "671782",
            "flags": "__"
        },
        {
            "codec_type": "audio",
            "stream_index": 1,
            "pts": 2640000,
            "pts_time": "2.640000",
            "dts": 2640000,
            "dts_time": "2.640000",
            "duration": 20000,
            "duration_time": "0.020000",
            "size": "301",
            "pos": "680210",
            "flags": "K_"
        },
        {
            "codec_type": "audio",
            "stream_index": 1,
            "pts": 2660000,
            "pts_time": "2.660000",
            "dts": 2660000,
            "dts_time": "2.660000",
            "duration": 20000,
            "duration_time": "0.020000",
            "size": "301",
            "pos": "680521",
            "flags": "K_"
        },
        {
            "codec_type": "video",
            "stream_index": 0,
            "pts": 2669333,
            "pts_time": "2.669333",
            "dts": 2669333,
            "dts_time": "2.669333",
            "duration": 10666,
            "duration_time": "0.010666",
            "size": "8403",
            "pos": "680841",
            "flags": "__"
        },
        {
            "codec_type": "audio",
            "stream_index": 1,
            "pts": 2680000,
            "pts_time": "2.680000",
            "dts": 2680000,
            "dts_time": "2.680000",
            "duration": 20000,
            "duration_time": "0.020000",
            "size": "301",
            "pos": "689275",
            "flags": "K_"
        },
        {
            "codec_type": "audio",
            "stream_index": 1,
            "pts": 2700000,
            "pts_time": "2.700000",
            "dts": 2700000,
            "dts_time": "2.700000",
            "duration": 20000,
            "duration_time": "0.020000",
            "size": "301",
            "pos": "689586",
            "flags": "K_"
        },
        {
            "codec_type": "video",
            "stream_index": 0,
            "pts": 2702700,
            "pts_time": "2.702700",
            "dts": 2702700,
            "dts_time": "2.702700",
            "duration": 17300,
            "duration_time": "0.017300",
            "size": "8455",
            "pos": "689906",
            "flags": "__"
        },
        {
            "codec_type": "audio",
            "stream_index": 1,
            "pts": 2720000,
            "pts_time": "2.720000",
            "dts": 2720000,
            "dts_time": "2.720000",
            "duration": 20000,
            "duration_time": "0.020000",
            "size": "301",
            "pos": "698395",
            "flags": "K_"
        },
        {
            "codec_type": "video",
            "stream_index": 0,
            "pts": 2736066,
            "pts_time": "2.736066",
            "dts": 2736066,
            "dts_time": "2.736066",
            "duration": 23933,
            "duration_time": "0.023933",
            "size": "8391",
            "pos": "698713",
            "flags": "__"
        },
        {
            "codec_type": "audio",
            "stream_index": 1,
            "pts": 2740000,
            "pts_time": "2.740000",
            "dts": 2740000,
            "dts_time": "2.740000",
            "duration": 20000,
            "duration_time": "0.020000",
            "size": "301",
            "pos": "707135",
            "flags": "K_"
        },
        {
            "codec_type": "audio",
            "stream_index": 1,
            "pts": 2760000,
            "pts_time": "2.760000",
            "dts": 2760000,
            "dts_time": "2.760000",
            "duration": 20000,
            "duration_time": "0.020000",
            "size": "301",
            "pos": "707446",
            "flags": "K_"
        },
        {
            "codec_type": "video",
            "stream_index": 0,
            "pts": 2769433,
            "pts_time": "2.769433",
            "dts": 2769433,
            "dts_time": "2.769433",
            "duration": 10566,
            "duration_time": "0.010566",
            "size": "8400",
            "pos": "707766",
            "flags": "__"
        },
        {
            "codec_type": "audio",
            "stream_index": 1,
            "pts": 2780000,
            "pts_time": "2.780000",
            "dts": 2780000,
            "dts_time": "2.780000",
            "duration": 20000,
            "duration_time": "0.020000",
            "size": "301",
            "pos": "716197",
            "flags": "K_"
        },
        {
            "codec_type": "audio",
            "stream_index": 1,
            "pts": 2800000,
            "pts_time": "2.800000",
            "dts": 2800000,
            "dts_time": "2.800000",
            "duration": 20000,
            "duration_time": "0.020000",
            "size": "301",
            "pos": "716508",
            "flags": "K_"
        },
        {
            "codec_type": "video",
            "stream_index": 0,
            "pts": 2802800,
            "pts_time": "2.802800",
            "dts": 2802800,
            "dts_time": "2.802800",
            "duration": 17200,
            "duration_time": "0.017200",
            "size": "8346",
            "pos": "716828",
            "flags": "__"
        },
        {
            "codec_type": "audio",
            "stream_index": 1,
            "pts": 2820000,
            "pts_time": "2.820000",
            "dts": 2820000,
            "dts_time": "2.820000",
            "duration": 20000,
            "duration_time": "0.020000",
            "size": "301",
            "pos": "725208",
            "flags": "K_"
        },
        {
            "codec_type": "video",
            "stream_index": 0,
            "pts": 2836166,
            "pts_time": "2.836166",
            "dts": 2836166,
            "dts_time": "2.836166",
            "duration": 23833,
            "duration_time": "0.023833",
            "size": "8464",
            "pos": "725526",
            "flags": "__"
        },
        {
            "codec_type": "audio",
            "stream_index": 1,
            "pts": 2840000,
            "pts_time": "2.840000",
            "dts": 2840000,
            "dts_time": "2.840000",
            "duration": 20000,
            "duration_time": "0.020000",
            "size": "301",
            "pos": "734021",
            "flags": "K_"
        },
        {
            "codec_type": "audio",
            "stream_index": 1,
            "pts": 2860000,
            "pts_time": "2.860000",
            "dts": 2860000,
            "dts_time": "2.860000",
            "duration": 20000,
            "duration_time": "0.020000",
            "size": "301",
            "pos": "734332",
            "flags": "K_"
        },
        {
            "codec_type": "video",
            "stream_index": 0,
            "pts": 2869533,
            "pts_time": "2.869533",
            "dts": 2869533,
            "dts_time": "2.869533",
            "duration": 10466,
            "duration_time": "0.010466",
            "size": "8425",
            "pos": "734652",
            "flags": "__"
        },
        {
            "codec_type": "audio",
            "stream_index": 1,
            "pts": 2880000,
            "pts_time": "2.880000",
            "dts": 2880000,
            "dts_time": "2.880000",
            "duration": 20000,
            "duration_time": "0.020000",
            "size": "301",
            "pos": "743108",
            "flags": "K_"
        },
        {
            "codec_type": "audio",
            "stream_index": 1,
            "pts": 2900000,
            "pts_time": "2.900000",
            "dts": 2900000,
            "dts_time": "2.900000",
            "duration": 20000,
            "duration_time": "0.020000",
            "size": "301",
            "pos": "743419",
            "flags": "K_"
        },
        {
            "codec_type": "video",
            "stream_index": 0,
            "pts": 2902900,
            "pts_time": "2.902900",
            "dts": 2902900,
            "dts_time": "2.902900",
            "duration": 17100,
            "duration_time": "0.017100",
            "size": "8413",
            "pos": "743739",
            "flags": "__"
        },
        {
            "codec_type": "audio",
            "stream_index": 1,
            "pts": 2920000,
            "pts_time": "2.920000",
            "dts": 2920000,
            "dts_time": "2.920000",
            "duration": 20000,
            "duration_time": "0.020000",
            "size": "301",
            "pos": "752186",
            "flags": "K_"
        },
        {
            "codec_type": "video",
            "stream_index": 0,
            "pts": 2936266,
            "pts_time": "2.936266",
            "dts": 2936266,
            "dts_time": "2.936266",
            "duration": 23733,
            "duration_time": "0.023733",
            "size": "8391",
            "pos": "752504",
            "flags": "__"
        },
        {
            "codec_type": "audio",
            "stream_index": 1,
            "pts": 2940000,
            "pts_time": "2.940000",
            "dts": 2940000,
            "dts_time": "2.940000",
            "duration": 20000,
            "duration_time": "0.020000",
            "size": "301",
            "pos": "760926",
            "flags": "K_"
        },
        {
            "codec_type": "audio",
            "stream_index": 1,
            "pts": 2960000,
            "pts_time": "2.960000",
            "dts": 2960000,
            "dts_time": "2.960000",
            "duration": 20000,
            "duration_time": "0.020000",
            "size": "301",
            "pos": "761237",
            "flags": "K_"
        },
        {
            "codec_type": "video",
            "stream_index": 0,
            "pts": 2969633,
            "pts_time": "2.969633",
            "dts": 2969633,
            "dts_time": "2.969633",
            "duration": 10366,
            "duration_time": "0.010366",
            "size": "8414",
            "pos": "761557",
            "flags": "__"
        },
        {
            "codec_type": "audio",
            "stream_index": 1,
            "pts": 2980000,
            "pts_time": "2.980000",
            "dts": 2980000,
            "dts_time": "2.980000",
            "duration": 20000,
            "duration_time": "0.020000",
            "size": "301",
            "pos": "770002",
            "flags": "K_"
        },
        {
            "codec_type": "audio",
            "stream_index": 1,
            "pts": 3000000,
            "pts_time": "3.000000",
            "dts": 3000000,
            "dts_time": "3.000000",
            "duration": 20000,
            "duration_time": "0.020000",
            "size": "301",
            "pos": "770313",
            "flags": "K_"
        },
        {
            "codec_type": "video",
            "stream_index": 0,
            "pts": 3003000,
            "pts_time": "3.003000",
            "dts": 3003000,
            "dts_time": "3.003000",
            "duration": 17000,
            "duration_time": "0.017000",
            "size": "8409",
            "pos": "770633",
            "flags": "__"
        },
        {
            "codec_type": "audio",
            "stream_index": 1,
            "pts": 3020000,
            "pts_time": "3.020000",
            "dts": 3020000,
            "dts_time": "3.020000",
            "duration": 20000,
            "duration_time": "0.020000",
            "size": "301",
            "pos": "779076",
            "flags": "K_"
        },
        {
            "codec_type": "video",
            "stream_index": 0,
            "pts": 3036366,
            "pts_time": "3.036366",
            "dts": 3036366,
            "dts_time": "3.036366",
            "duration": 23633,
            "duration_time": "0.023633",
            "size": "8452",
            "pos": "779394",
            "flags": "__"
        },
        {
            "codec_type": "audio",
            "stream_index": 1,
            "pts": 3040000,
            "pts_time": "3.040000",
            "dts": 3040000,
            "dts_time": "3.040000",
            "duration": 20000,
            "duration_time": "0.020000",
            "size": "301",
            "pos": "787877",
            "flags": "K_"
        },
        {
            "codec_type": "audio",
            "stream_index": 1,
            "pts": 3060000,
            "pts_time": "3.060000",
            "dts": 3060000,
            "dts_time": "3.060000",
            "duration": 20000,
            "duration_time": "0.020000",
            "size": "301",
            "pos": "788188",
            "flags": "K_"
        },
        {
            "codec_type": "video",
            "stream_index": 0,
            "pts": 3069733,
            "pts_time": "3.069733",
            "dts": 3069733,
            "dts_time": "3.069733",
            "duration": 10266,
            "duration_time": "0.010266",
            "size": "8407",
            "pos": "788508",
            "flags": "__"
        },
        {
            "codec_type": "audio",
            "stream_index": 1,
            "pts": 3080000,
            "pts_time": "3.080000",
            "dts": 3080000,
            "dts_time": "3.080000",
            "duration": 20000,
            "duration_time": "0.020000",
            "size": "301",
            "pos": "796946",
            "flags": "K_"
        },
        {
            "codec_type": "audio",
            "stream_index": 1,
            "pts": 3100000,
            "pts_time": "3.100000",
            "dts": 3100000,
            "dts_time": "3.100000",
            "duration": 20000,
            "duration_time": "0.020000",
            "size": "301",
            "pos": "797257",
            "flags": "K_"
        },
        {
            "codec_type": "video",
            "stream_index": 0,
            "pts": 3103100,
            "pts_time": "3.103100",
            "dts": 3103100,
            "dts_time": "3.103100",
            "duration": 16900,
            "duration_time": "0.016900",
            "size": "8421",
            "pos": "797577",
            "flags": "__"
        },
        {
            "codec_type": "audio",
            "stream_index": 1,
            "pts": 3120000,
            "pts_time": "3.120000",
            "dts": 3120000,
            "dts_time": "3.120000",
            "duration": 20000,
            "duration_time": "0.020000",
            "size": "301",
            "pos": "806032",
            "flags": "K_"
        },
        {
            "codec_type": "video",
            "stream_index": 0,
            "pts": 3136466,
            "pts_time": "3.136466",
            "dts": 3136466,
            "dts_time": "3.136466",
            "duration": 23533,
            "duration_time": "0.023533",
            "size": "8386",
            "pos": "806350",
            "flags": "__"
        },
        {
            "codec_type": "audio",
            "stream_index": 1,
            "pts": 3140000,
            "pts_time": "3.140000",
            "dts": 3140000,
            "dts_time": "3.140000",
            "duration": 20000,
            "duration_time": "0.020000",
            "size": "301",
            "pos": "814767",
            "flags": "K_"
        },
        {
            "codec_type": "audio",
            "stream_index": 1,
            "pts": 3160000,
            "pts_time": "3.160000",
            "dts": 3160000,
            "dts_time": "3.160000",
            "duration": 20000,
            "duration_time": "0.020000",
            "size": "301",
            "pos": "815078",
            "flags": "K_"
        },
        {
            "codec_type": "video",
            "stream_index": 0,
            "pts": 3169833,
            "pts_time": "3.169833",
            "dts": 3169833,
            "dts_time": "3.169833",
            "duration": 10166,
            "duration_time": "0.010166",
            "size": "8484",
            "pos": "815398",
            "flags": "__"
        },
        {
            "codec_type": "audio",
            "stream_index": 1,
            "pts": 3180000,
            "pts_time": "3.180000",
            "dts": 3180000,
            "dts_time": "3.180000",
            "duration": 20000,
            "duration_time": "0.020000",
            "size": "299",
            "pos": "823913",
            "flags": "K_"
        },
        {
            "codec_type": "audio",
            "stream_index": 1,
            "pts": 3200000,
            "pts_time": "3.200000",
            "dts": 3200000,
            "dts_time": "3.200000",
            "duration": 20000,
            "duration_time": "0.020000",
            "size": "303",
            "pos": "824222",
            "flags": "K_"
        },
        {
            "codec_type": "video",
            "stream_index": 0,
            "pts": 3203200,
            "pts_time": "3.203200",
            "dts": 3203200,
            "dts_time": "3.203200",
            "duration": 16800,
            "duration_time": "0.016800",
            "size": "8404",
            "pos": "824544",
            "flags": "__"
        },
        {
            "codec_type": "audio",
            "stream_index": 1,
            "pts": 3220000,
            "pts_time": "3.220000",
            "dts": 3220000,
            "dts_time": "3.220000",
            "duration": 20000,
            "duration_time": "0.020000",
            "size": "301",
            "pos": "832982",
            "flags": "K_"
        },
        {
            "codec_type": "video",
            "stream_index": 0,
            "pts": 3236566,
            "pts_time": "3.236566",
            "dts": 3236566,
            "dts_time": "3.236566",
            "duration": 23433,
            "duration_time": "0.023433",
            "size": "8480",
            "pos": "833300",
            "flags": "__"
        },
        {
            "codec_type": "audio",
            "stream_index": 1,
            "pts": 3240000,
            "pts_time": "3.240000",
            "dts": 3240000,
            "dts_time": "3.240000",
            "duration": 20000,
            "duration_time": "0.020000",
            "size": "301",
            "pos": "841811",
            "flags": "K_"
        },
        {
            "codec_type": "audio",
            "stream_index": 1,
            "pts": 3260000,
            "pts_time": "3.260000",
            "dts": 3260000,
            "dts_time": "3.260000",
            "duration": 20000,
            "duration_time": "0.020000",
            "size": "301",
            "pos": "842122",
            "flags": "K_"
        },
        {
            "codec_type": "video",
            "stream_index": 0,
            "pts": 3269933,
            "pts_time": "3.269933",
            "dts": 3269933,
            "dts_time": "3.269933",
            "duration": 10066,
            "duration_time": "0.010066",
            "size": "8417",
            "pos": "842442",
            "flags": "__"
        },
        {
            "codec_type": "audio",
            "stream_index": 1,
            "pts": 3280000,
            "pts_time": "3.280000",
            "dts": 3280000,
            "dts_time": "3.280000",
            "duration": 20000,
            "duration_time": "0.020000",
            "size": "301",
            "pos": "850890",
            "flags": "K_"
        },
        {
            "codec_type": "audio",
            "stream_index": 1,
            "pts": 3300000,
            "pts_time": "3.300000",
            "dts": 3300000,
            "dts_time": "3.300000",
            "duration": 20000,
            "duration_time": "0.020000",
            "size": "301",
            "pos": "851198",
            "flags": "K_"
        },
        {
            "codec_type": "audio",
            "stream_index": 1,
            "pts": 3303266,
            "pts_time": "3.303266",
            "dts": 3303266,
            "dts_time": "3.303266",
            "duration": 20000,
            "duration_time": "0.020000",
            "size": "301",
            "pos": "851509",
            "flags": "K_"
        },
        {
            "codec_type": "video",
            "stream_index": 0,
            "pts": 3303300,
            "pts_time": "3.303300",
            "dts": 3303300,
            "dts_time": "3.303300",
            "duration": 19966,
            "duration_time": "0.019966",
            "size": "8392",
            "pos": "851829",
            "flags": "__"
        },
        {
            "codec_type": "audio",
            "stream_index": 1,
            "pts": 3323266,
            "pts_time": "3.323266",
            "dts": 3323266,
            "dts_time": "3.323266",
            "duration": 20000,
            "duration_time": "0.020000",
            "size": "301",
            "pos": "860252",
            "flags": "K_"
        }
    ]
}
